<mxfile host="app.diagrams.net" agent="Mozilla/5.0 (Windows NT 10.0; Win64; x64; rv:128.0) Gecko/20100101 Firefox/128.0" version="24.8.4">
  <diagram name="Page-1" id="4nIqLT7aUbP-TcCVsXmG">
    <mxGraphModel dx="1434" dy="726" grid="1" gridSize="10" guides="1" tooltips="1" connect="1" arrows="1" fold="1" page="1" pageScale="1" pageWidth="850" pageHeight="1100" math="0" shadow="0">
      <root>
        <mxCell id="0" />
        <mxCell id="1" parent="0" />
        <mxCell id="BmCIsiCDHkIcZGj1QrR8-7" value="Coordonner les différentes fonctions de la console" style="rounded=0;whiteSpace=wrap;html=1;" vertex="1" parent="1">
          <mxGeometry x="320" y="410" width="170" height="90" as="geometry" />
        </mxCell>
        <mxCell id="BmCIsiCDHkIcZGj1QrR8-9" value="Allumer la console" style="rounded=0;whiteSpace=wrap;html=1;" vertex="1" parent="1">
          <mxGeometry x="590" y="520" width="120" height="60" as="geometry" />
        </mxCell>
        <mxCell id="BmCIsiCDHkIcZGj1QrR8-41" style="edgeStyle=orthogonalEdgeStyle;rounded=0;orthogonalLoop=1;jettySize=auto;html=1;exitX=1;exitY=0.5;exitDx=0;exitDy=0;entryX=0;entryY=0.5;entryDx=0;entryDy=0;" edge="1" parent="1" source="BmCIsiCDHkIcZGj1QrR8-12" target="BmCIsiCDHkIcZGj1QrR8-7">
          <mxGeometry relative="1" as="geometry" />
        </mxCell>
        <mxCell id="BmCIsiCDHkIcZGj1QrR8-12" value="Afficher des images et des graphiques" style="whiteSpace=wrap;html=1;" vertex="1" parent="1">
          <mxGeometry x="90" y="475" width="120" height="60" as="geometry" />
        </mxCell>
        <mxCell id="BmCIsiCDHkIcZGj1QrR8-47" value="" style="edgeStyle=orthogonalEdgeStyle;rounded=0;orthogonalLoop=1;jettySize=auto;html=1;" edge="1" parent="1" source="BmCIsiCDHkIcZGj1QrR8-14" target="BmCIsiCDHkIcZGj1QrR8-9">
          <mxGeometry relative="1" as="geometry" />
        </mxCell>
        <mxCell id="BmCIsiCDHkIcZGj1QrR8-14" value="Fournir de l&#39;énergie" style="whiteSpace=wrap;html=1;" vertex="1" parent="1">
          <mxGeometry x="590" y="370" width="120" height="60" as="geometry" />
        </mxCell>
        <mxCell id="BmCIsiCDHkIcZGj1QrR8-46" value="" style="edgeStyle=orthogonalEdgeStyle;rounded=0;orthogonalLoop=1;jettySize=auto;html=1;" edge="1" parent="1" source="BmCIsiCDHkIcZGj1QrR8-17" target="BmCIsiCDHkIcZGj1QrR8-26">
          <mxGeometry relative="1" as="geometry" />
        </mxCell>
        <mxCell id="BmCIsiCDHkIcZGj1QrR8-17" value="Emettre des sons" style="whiteSpace=wrap;html=1;" vertex="1" parent="1">
          <mxGeometry x="240" y="610" width="120" height="60" as="geometry" />
        </mxCell>
        <mxCell id="BmCIsiCDHkIcZGj1QrR8-42" style="edgeStyle=orthogonalEdgeStyle;rounded=0;orthogonalLoop=1;jettySize=auto;html=1;exitX=0.5;exitY=0;exitDx=0;exitDy=0;entryX=0.5;entryY=1;entryDx=0;entryDy=0;" edge="1" parent="1" source="BmCIsiCDHkIcZGj1QrR8-21" target="BmCIsiCDHkIcZGj1QrR8-12">
          <mxGeometry relative="1" as="geometry" />
        </mxCell>
        <mxCell id="BmCIsiCDHkIcZGj1QrR8-21" value="&lt;div&gt;Stocker des ressources graphiques et sonores&lt;/div&gt;" style="whiteSpace=wrap;html=1;" vertex="1" parent="1">
          <mxGeometry x="90" y="610" width="120" height="60" as="geometry" />
        </mxCell>
        <mxCell id="BmCIsiCDHkIcZGj1QrR8-44" style="edgeStyle=orthogonalEdgeStyle;rounded=0;orthogonalLoop=1;jettySize=auto;html=1;exitX=1;exitY=0.5;exitDx=0;exitDy=0;entryX=0;entryY=0.5;entryDx=0;entryDy=0;" edge="1" parent="1" source="BmCIsiCDHkIcZGj1QrR8-26" target="BmCIsiCDHkIcZGj1QrR8-9">
          <mxGeometry relative="1" as="geometry" />
        </mxCell>
        <mxCell id="BmCIsiCDHkIcZGj1QrR8-45" value="" style="edgeStyle=orthogonalEdgeStyle;rounded=0;orthogonalLoop=1;jettySize=auto;html=1;" edge="1" parent="1" source="BmCIsiCDHkIcZGj1QrR8-26" target="BmCIsiCDHkIcZGj1QrR8-7">
          <mxGeometry relative="1" as="geometry" />
        </mxCell>
        <mxCell id="BmCIsiCDHkIcZGj1QrR8-26" value="&lt;div&gt;Intéragir avec l&#39;utilisateur&lt;/div&gt;" style="whiteSpace=wrap;html=1;" vertex="1" parent="1">
          <mxGeometry x="400" y="610" width="120" height="60" as="geometry" />
        </mxCell>
      </root>
    </mxGraphModel>
  </diagram>
</mxfile>
